<svg width="14" height="14" viewBox="0 0 14 14" fill="none" xmlns="http://www.w3.org/2000/svg">
<rect x="1" y="1" width="12" height="12" rx="6" fill="#FF8A00" stroke="#FF8A00" stroke-width="2"/>
<path d="M7.59934 8.63H6.40934L6.15934 3.86H7.84934L7.59934 8.63ZM6.13934 10.3C6.13934 9.99333 6.22267 9.78 6.38934 9.66C6.556 9.53333 6.75934 9.47 6.99934 9.47C7.23267 9.47 7.43267 9.53333 7.59934 9.66C7.766 9.78 7.84934 9.99333 7.84934 10.3C7.84934 10.5933 7.766 10.8067 7.59934 10.94C7.43267 11.0667 7.23267 11.13 6.99934 11.13C6.75934 11.13 6.556 11.0667 6.38934 10.94C6.22267 10.8067 6.13934 10.5933 6.13934 10.3Z" fill="white"/>
</svg>
