<svg width="16" height="15" viewBox="0 0 16 15" fill="none" xmlns="http://www.w3.org/2000/svg">
<path d="M8 2.125L14.3333 14H1.66667L8 2.125Z" fill="#DF1414" stroke="#DF1414" stroke-width="2" stroke-linecap="round" stroke-linejoin="round"/>
<path d="M8.59934 10.63H7.40934L7.15934 5.86H8.84934L8.59934 10.63ZM7.13934 12.3C7.13934 11.9933 7.22267 11.78 7.38934 11.66C7.556 11.5333 7.75934 11.47 7.99934 11.47C8.23267 11.47 8.43267 11.5333 8.59934 11.66C8.766 11.78 8.84934 11.9933 8.84934 12.3C8.84934 12.5933 8.766 12.8067 8.59934 12.94C8.43267 13.0667 8.23267 13.13 7.99934 13.13C7.75934 13.13 7.556 13.0667 7.38934 12.94C7.22267 12.8067 7.13934 12.5933 7.13934 12.3Z" fill="white"/>
</svg>
