<svg width="74" height="22" viewBox="0 0 74 22" fill="none" xmlns="http://www.w3.org/2000/svg">
<path d="M15.9979 4.52414C15.9832 4.41986 15.8948 4.36027 15.8212 4.36027C15.7475 4.36027 14.2895 4.33048 14.2895 4.33048C14.2895 4.33048 13.0672 3.13872 12.9493 3.00464C12.8315 2.88547 12.5959 2.91526 12.5075 2.94506C12.5075 2.94506 12.2719 3.01954 11.889 3.13872C11.8301 2.93016 11.727 2.67691 11.5944 2.40876C11.1673 1.57453 10.5193 1.12762 9.75349 1.12762C9.69458 1.12762 9.6504 1.12762 9.59149 1.14252C9.56203 1.11272 9.54731 1.08293 9.51785 1.06803C9.17912 0.710504 8.75202 0.53174 8.23656 0.546637C7.24983 0.576431 6.26309 1.30638 5.45308 2.58753C4.89344 3.49625 4.46634 4.62842 4.3338 5.50734C3.19979 5.86487 2.4045 6.11812 2.37505 6.11812C1.80068 6.29689 1.78595 6.31178 1.71232 6.86297C1.68286 7.28009 0.180664 19.0338 0.180664 19.0338L12.7873 21.2386L18.2512 19.8681C18.2365 19.8681 16.0126 4.62842 15.9979 4.52414ZM11.2557 3.34728C10.9611 3.43666 10.6371 3.54094 10.2837 3.66011C10.2837 3.15361 10.21 2.43856 9.98913 1.84268C10.7402 1.96185 11.1084 2.82588 11.2557 3.34728ZM9.62094 3.85377C8.95821 4.06233 8.23656 4.28579 7.51492 4.50924C7.7211 3.7197 8.10402 2.94506 8.57529 2.42366C8.75202 2.23 9.00239 2.02144 9.28221 1.90227C9.57676 2.48325 9.63567 3.30259 9.62094 3.85377ZM8.26602 1.217C8.50166 1.217 8.69311 1.26169 8.85512 1.38087C8.59002 1.51494 8.32493 1.7235 8.08929 1.99165C7.45601 2.67691 6.97001 3.7346 6.77855 4.76249C6.17472 4.95615 5.58563 5.13492 5.05544 5.29879C5.4089 3.67501 6.74909 1.26169 8.26602 1.217Z" fill="#95BF47"/>
<path d="M15.8229 4.36029C15.7493 4.36029 14.2913 4.3305 14.2913 4.3305C14.2913 4.3305 13.0689 3.13873 12.9511 3.00466C12.9069 2.95997 12.848 2.93018 12.7891 2.93018V21.2386L18.2529 19.8681C18.2529 19.8681 16.0291 4.62844 16.0144 4.52416C15.9849 4.41988 15.8965 4.36029 15.8229 4.36029Z" fill="#5E8E3E"/>
<path d="M9.75404 7.20554L9.12076 9.60396C9.12076 9.60396 8.41384 9.27623 7.57438 9.33582C6.33727 9.4103 6.33727 10.1998 6.33727 10.3935C6.41091 11.4661 9.1944 11.7044 9.3564 14.222C9.47422 16.2033 8.32548 17.559 6.64655 17.6632C4.64362 17.7675 3.53906 16.5758 3.53906 16.5758L3.96616 14.7434C3.96616 14.7434 5.08544 15.5926 5.96909 15.533C6.54346 15.5032 6.76437 15.0116 6.73491 14.6838C6.64655 13.2835 4.37853 13.3729 4.23125 11.0639C4.11343 9.12726 5.36526 7.17575 8.13402 6.99699C9.20912 6.9225 9.75404 7.20554 9.75404 7.20554Z" fill="white"/>
<path d="M25.6434 12.3152C25.0101 11.9726 24.6861 11.6746 24.6861 11.2724C24.6861 10.7659 25.1427 10.4382 25.8496 10.4382C26.6743 10.4382 27.4107 10.7808 27.4107 10.7808L27.9851 8.99317C27.9851 8.99317 27.4549 8.57605 25.8938 8.57605C23.7141 8.57605 22.1972 9.8423 22.1972 11.615C22.1972 12.628 22.9041 13.3878 23.8466 13.939C24.6125 14.371 24.8776 14.6838 24.8776 15.1456C24.8776 15.6223 24.4947 16.0097 23.7877 16.0097C22.7421 16.0097 21.7406 15.4585 21.7406 15.4585L21.1221 17.2461C21.1221 17.2461 22.0352 17.8718 23.5816 17.8718C25.8201 17.8718 27.4401 16.7545 27.4401 14.7434C27.4254 13.6559 26.6154 12.8813 25.6434 12.3152Z" fill="black"/>
<path d="M34.5687 8.54616C33.4642 8.54616 32.5953 9.08245 31.9325 9.88689L31.9031 9.87199L32.8604 4.80701H30.3714L27.9414 17.7078H30.4303L31.2551 13.2983C31.5791 11.6298 32.4333 10.6019 33.2285 10.6019C33.7882 10.6019 34.0091 10.9893 34.0091 11.5405C34.0091 11.8831 33.9796 12.3151 33.906 12.6577L32.9635 17.7078H35.4524L36.4244 12.4939C36.5275 11.9427 36.6011 11.2872 36.6011 10.8403C36.6159 9.41019 35.8795 8.54616 34.5687 8.54616Z" fill="black"/>
<path d="M42.2563 8.54614C39.2519 8.54614 37.2637 11.2872 37.2637 14.3411C37.2637 16.2926 38.4566 17.8717 40.6952 17.8717C43.6406 17.8717 45.6289 15.2051 45.6289 12.0767C45.6436 10.2742 44.5979 8.54614 42.2563 8.54614ZM41.0339 15.95C40.1797 15.95 39.8262 15.22 39.8262 14.2964C39.8262 12.8514 40.5626 10.4977 41.9175 10.4977C42.8012 10.4977 43.0957 11.2723 43.0957 12.0171C43.0957 13.5664 42.3446 15.95 41.0339 15.95Z" fill="black"/>
<path d="M52.0208 8.54614C50.3418 8.54614 49.3845 10.0507 49.3845 10.0507H49.3551L49.5024 8.69511H47.2933C47.1902 9.60383 46.984 11.0041 46.7925 12.0469L45.0547 21.2831H47.5436L48.2358 17.5439H48.2947C48.2947 17.5439 48.8102 17.8717 49.7527 17.8717C52.6835 17.8717 54.5981 14.8327 54.5981 11.7639C54.5981 10.0656 53.847 8.54614 52.0208 8.54614ZM49.6349 15.9798C48.9869 15.9798 48.604 15.6073 48.604 15.6073L49.0164 13.2536C49.3109 11.6745 50.1209 10.6317 50.9898 10.6317C51.7557 10.6317 51.9913 11.3468 51.9913 12.0171C51.9913 13.6558 51.034 15.9798 49.6349 15.9798Z" fill="black"/>
<path d="M58.162 4.92627C57.3667 4.92627 56.7334 5.56684 56.7334 6.38618C56.7334 7.13103 57.2047 7.65242 57.9116 7.65242H57.9411C58.7216 7.65242 59.3843 7.11613 59.3991 6.19252C59.3991 5.46256 58.9131 4.92627 58.162 4.92627Z" fill="black"/>
<path d="M54.6719 17.693H57.1608L58.8545 8.75476H56.3508L54.6719 17.693Z" fill="black"/>
<path d="M65.2015 8.73987H63.4637L63.5521 8.32276C63.6993 7.45873 64.2001 6.69898 65.0395 6.69898C65.4813 6.69898 65.8348 6.83305 65.8348 6.83305L66.3208 4.85175C66.3208 4.85175 65.8937 4.6283 64.9659 4.6283C64.0822 4.6283 63.1986 4.88155 62.5211 5.46253C61.6669 6.19248 61.2693 7.25017 61.0778 8.32276L61.0042 8.73987H59.8407L59.4725 10.6467H60.636L59.3105 17.7079H61.7995L63.125 10.6467H64.8481L65.2015 8.73987Z" fill="black"/>
<path d="M71.2106 8.75476C71.2106 8.75476 69.6495 12.7323 68.9573 14.9072H68.9278C68.8836 14.2071 68.3093 8.75476 68.3093 8.75476H65.6878L67.19 16.963C67.2194 17.1418 67.2047 17.261 67.1311 17.3801C66.8365 17.9462 66.3505 18.4974 65.7761 18.8996C65.3049 19.2423 64.7747 19.4657 64.3623 19.6147L65.0545 21.7599C65.5552 21.6556 66.6156 21.2236 67.4992 20.3893C68.6333 19.3167 69.6936 17.6483 70.7687 15.3839L73.8173 8.75476H71.2106Z" fill="black"/>
</svg>
